<?xml version="1.0" standalone="no"?>
<!DOCTYPE svg PUBLIC "-//W3C//DTD SVG 20010904//EN"
 "http://www.w3.org/TR/2001/REC-SVG-20010904/DTD/svg10.dtd">
<svg version="1.0" xmlns="http://www.w3.org/2000/svg"
 width="512.000000pt" height="512.000000pt" viewBox="0 0 512.000000 512.000000"
 preserveAspectRatio="xMidYMid meet">
<metadata>
Created by potrace 1.14, written by Peter Selinger 2001-2017
</metadata>
<g transform="translate(0.000000,512.000000) scale(0.100000,-0.100000)"
fill="#000000" stroke="none">
<path d="M2378 5116 c-1 -2 -34 -6 -73 -9 -269 -24 -596 -117 -860 -245 -154
-75 -364 -207 -478 -301 -128 -105 -303 -280 -397 -395 -223 -276 -422 -673
-495 -994 -53 -229 -69 -370 -70 -592 0 -219 6 -296 34 -455 48 -275 137 -532
268 -775 43 -81 178 -292 214 -335 137 -165 181 -213 261 -290 225 -217 472
-384 757 -510 123 -54 301 -116 411 -141 231 -52 341 -66 570 -69 107 -1 229
1 270 6 103 12 169 20 194 25 12 2 37 7 56 10 393 68 865 295 1180 569 78 67
261 255 322 330 279 341 486 802 544 1205 2 19 6 44 9 55 19 95 27 455 13 605
-7 76 -46 308 -53 320 -2 4 -6 19 -9 34 -3 15 -17 69 -32 119 -95 327 -290
685 -509 937 -39 45 -240 246 -285 285 -255 222 -616 417 -953 514 -117 34
-277 67 -369 77 -35 3 -67 9 -72 12 -10 5 -441 13 -448 8z m482 -531 c597 -95
1107 -431 1435 -945 136 -213 253 -524 288 -765 17 -114 20 -152 22 -293 5
-391 -96 -753 -303 -1092 -239 -391 -627 -704 -1062 -858 -101 -36 -202 -66
-265 -78 -11 -2 -31 -6 -45 -9 -14 -2 -47 -7 -75 -11 -27 -3 -76 -9 -108 -13
-102 -14 -429 -4 -497 14 -8 3 -33 7 -55 10 -22 4 -76 15 -120 26 -509 128
-962 453 -1242 894 -108 169 -220 434 -263 620 -29 126 -31 135 -36 180 -3 22
-9 72 -13 110 -10 76 -7 324 4 420 38 335 186 706 388 975 360 480 875 770
1482 833 82 8 371 -3 465 -18z"/>
<path d="M2438 3835 c-2 -2 -28 -6 -59 -9 -31 -4 -71 -11 -88 -16 -17 -5 -34
-9 -36 -9 -53 -5 -201 -59 -293 -107 -165 -85 -311 -210 -427 -363 -110 -145
-205 -364 -231 -527 -3 -21 -9 -58 -14 -82 -15 -81 -4 -320 19 -429 54 -257
177 -481 358 -654 96 -91 122 -110 228 -175 72 -44 240 -120 285 -129 8 -2 33
-8 55 -14 22 -6 56 -13 75 -16 19 -3 59 -9 89 -14 55 -9 307 -7 347 2 12 3 39
8 60 11 220 35 473 166 647 335 200 193 325 438 372 726 13 79 14 337 2 385
-4 14 -8 39 -11 55 -2 17 -11 56 -19 87 -128 477 -501 826 -990 924 -68 14
-358 29 -369 19z"/>
</g>
</svg>
